<svg width="140" height="86" viewBox="0 0 140 86" fill="none" xmlns="http://www.w3.org/2000/svg">
<path d="M60.6281 12.3089C60.7467 12.7823 61.2213 13.1374 61.6959 13.1374C61.8145 13.1374 61.8145 13.1374 61.9332 13.1374C62.5264 13.019 62.8823 12.4273 62.7637 11.8355L60.8654 3.66881C60.7467 3.07702 60.1535 2.72195 59.5603 2.8403C58.9671 2.95866 58.6111 3.55045 58.7298 4.14224L60.6281 12.3089Z" fill="#069BA7"/>
<path d="M46.2733 11.8358C45.7987 11.3624 45.2055 11.3624 44.7309 11.8358C44.2564 12.3092 44.2564 12.901 44.7309 13.3744L50.1886 18.8189C50.4258 19.0556 50.6631 19.174 51.0191 19.174C51.2564 19.174 51.6123 19.0556 51.8496 18.8189C52.3242 18.3454 52.3242 17.7537 51.8496 17.2802L46.2733 11.8358Z" fill="#069BA7"/>
<path d="M48.0542 39.8867L40.817 42.7273C40.2237 42.964 39.9865 43.5558 40.2237 44.1475C40.3424 44.621 40.817 44.8577 41.2915 44.8577C41.4102 44.8577 41.5288 44.8577 41.6475 44.7393L48.8848 41.8988C49.478 41.662 49.7153 41.0703 49.478 40.4785C49.2407 40.005 48.6475 39.7683 48.0542 39.8867Z" fill="#069BA7"/>
<path d="M44.8479 29.5896C45.4411 29.5896 45.9157 29.1161 45.9157 28.6427C46.0343 28.0509 45.5598 27.4591 44.9665 27.4591L38.9157 26.749C38.3225 26.6306 37.7292 27.104 37.7292 27.6958C37.6106 28.2876 38.0852 28.8794 38.6784 28.8794L44.7292 29.5896C44.7292 29.5896 44.7292 29.5896 44.8479 29.5896Z" fill="#069BA7"/>
<path d="M97.5266 26.5117L91.1198 27.2218C90.5266 27.3402 90.052 27.8136 90.1706 28.4054C90.2893 28.9972 90.7639 29.3522 91.2384 29.3522H91.3571L97.7639 28.6421C98.3571 28.5237 98.8317 28.0503 98.713 27.4585C98.5944 26.8667 98.1198 26.3933 97.5266 26.5117Z" fill="#069BA7"/>
<path d="M91.5947 11.8358C91.2387 11.3623 90.5269 11.3623 90.0523 11.8358L84.2387 17.1618C83.7642 17.5169 83.7642 18.2271 84.2387 18.7005C84.476 18.9372 84.7133 19.0556 85.0692 19.0556C85.3065 19.0556 85.6625 18.9372 85.7811 18.8189L91.5947 13.3744C91.9506 12.901 91.9506 12.1908 91.5947 11.8358Z" fill="#069BA7"/>
<path d="M96.6989 44.1466L89.343 41.3061C88.7498 41.0693 88.1566 41.4244 87.9193 41.8978C87.682 42.4896 88.0379 43.0814 88.5125 43.3181L95.8684 46.1587C95.9871 46.1587 96.1057 46.2771 96.2244 46.2771C96.6989 46.2771 97.0549 46.0404 97.2922 45.5669C97.5294 45.0935 97.2922 44.3834 96.6989 44.1466Z" fill="#069BA7"/>
<path d="M73.7974 13.1377C73.916 13.1377 74.0347 13.1377 74.0347 13.1377C74.5092 13.1377 74.9838 12.7826 75.1024 12.3092L77.3567 4.1425C77.4753 3.55071 77.1194 2.95892 76.6448 2.84057C76.0516 2.72221 75.4584 3.07728 75.3397 3.55071L73.0855 11.7174C72.9669 12.3092 73.3228 12.901 73.7974 13.1377Z" fill="#069BA7"/>
<path d="M63.7137 21.8958C64.1883 22.0141 64.5443 22.3692 64.4256 22.8426L64.307 23.1977L63.0019 31.1276C62.8832 31.6011 62.5273 31.9561 62.0527 31.8378H61.9341C61.4595 31.7194 61.1036 31.3644 61.2222 30.8909L62.6459 22.4875C62.7646 22.1325 63.1205 21.8958 63.7137 21.8958Z" fill="#069BA7"/>
<path d="M61.4578 18.9372C61.9324 19.0556 62.2884 19.4107 62.1697 19.8841L62.0511 20.2392L60.2714 30.773C60.1528 31.2464 59.7968 31.6015 59.3223 31.4831H59.2036C58.729 31.3648 58.3731 31.0097 58.4917 30.5363L60.39 19.6474C60.39 19.174 60.8646 18.8189 61.4578 18.9372Z" fill="#069BA7"/>
<path d="M57.1879 21.6591C57.3065 21.1857 57.6625 20.8306 58.1371 20.949H58.2557C58.7303 21.0673 59.0862 21.4224 58.9676 21.8958L58.8489 22.2509L57.6625 29.3523C57.6625 29.4707 57.5438 29.5891 57.4252 29.7074C56.9506 29.3523 56.476 28.9973 55.8828 28.7606L57.1879 21.6591Z" fill="#069BA7"/>
<path d="M52.6782 28.8795C52.7968 28.7611 52.9155 28.6428 53.1528 28.5244C53.3901 28.5244 53.5087 28.5244 53.746 28.6428C53.746 28.6428 55.5257 29.8263 56.5935 30.5365C56.9494 30.7732 57.7799 31.6017 58.0172 31.9568C58.6104 32.9036 58.8477 33.8505 58.9663 34.3239V34.4423C58.9663 34.5606 58.9663 34.5606 59.085 34.679C59.085 34.9157 59.3223 35.0341 59.4409 35.0341H59.5596C59.7968 35.0341 60.0341 34.679 60.0341 34.4423C60.0341 34.4423 60.0341 34.2056 59.9155 33.8505C59.7968 33.2587 59.6782 32.9036 59.4409 32.4302C59.9155 32.4302 60.2714 32.1935 60.6273 31.9568C60.8646 32.4302 61.3392 32.7853 61.9324 32.7853H62.0511C62.6443 32.9036 63.1189 32.7853 63.5935 32.4302C63.8307 32.7853 64.3053 33.1404 64.7799 33.2587H64.8985C65.1358 33.2587 65.3731 33.2587 65.6104 33.2587C65.1358 35.1524 64.068 38.2297 62.0511 37.8747C61.8138 37.8747 61.5765 37.993 61.4579 38.3481C61.4579 38.5848 61.5765 38.8215 61.9324 38.9399C62.2884 38.9399 62.6443 38.9399 62.8816 38.9399C62.8816 39.1766 62.8816 39.2949 63.0002 39.5317C63.1189 40.3602 63.2375 41.307 62.7629 41.7804C62.5257 42.0172 62.1697 42.1355 61.8138 42.1355C60.5087 42.2539 59.085 42.2539 57.8985 41.8988H57.6612C56.7121 41.6621 55.0511 41.4254 54.8138 40.5969C54.6951 40.3602 54.6951 40.1234 54.8138 39.8867C55.0511 39.4133 55.2884 38.8215 55.6443 38.3481C55.7629 38.1114 56.0002 37.8747 56.1189 37.6379C56.4748 37.8747 56.7121 37.993 57.068 38.2297H57.1867C57.424 38.2297 57.6613 38.1114 57.7799 37.993C57.8985 37.7563 57.7799 37.4012 57.5426 37.2829C57.424 37.2829 57.3053 37.1645 57.3053 37.1645C57.1867 37.0462 56.8307 36.8094 56.8307 36.6911C56.3562 36.2176 55.7629 35.6259 55.5257 34.9157C55.407 34.7974 55.407 34.5606 55.5257 34.3239C55.5257 34.2056 55.6443 33.7321 55.7629 33.6138C55.8816 33.2587 55.6443 32.5486 55.5257 32.4302C55.407 32.1935 54.2206 30.8916 53.9833 30.6548C52.5596 29.708 52.3223 29.3529 52.6782 28.8795Z" fill="#069BA7"/>
<path d="M66.0868 24.6179C66.5614 24.7363 66.9173 25.0913 66.7987 25.5648V26.0382L65.8495 31.7194C65.7309 32.1928 65.375 32.5479 64.9004 32.4295H64.7817C64.3072 32.3111 63.9512 31.9561 64.0699 31.4826L65.1377 25.3281C65.1377 24.8546 65.6122 24.4996 66.0868 24.6179Z" fill="#069BA7"/>
<path d="M63.7137 21.8958C64.1883 22.0141 64.5443 22.3692 64.4256 22.8426L64.307 23.1977L63.0019 31.1276C62.8832 31.6011 62.5273 31.9561 62.0527 31.8378H61.9341C61.4595 31.7194 61.1036 31.3644 61.2222 30.8909L62.6459 22.4875C62.7646 22.1325 63.1205 21.8958 63.7137 21.8958Z" fill="#069BA7"/>
<path d="M61.4578 18.9372C61.9324 19.0556 62.2884 19.4107 62.1697 19.8841L62.0511 20.2392L60.2714 30.773C60.1528 31.2464 59.7968 31.6015 59.3223 31.4831H59.2036C58.729 31.3648 58.3731 31.0097 58.4917 30.5363L60.39 19.6474C60.39 19.174 60.8646 18.8189 61.4578 18.9372Z" fill="#069BA7"/>
<path d="M57.1879 21.6591C57.3065 21.1857 57.6625 20.8306 58.1371 20.949H58.2557C58.7303 21.0673 59.0862 21.4224 58.9676 21.8958L58.8489 22.2509L57.6625 29.3523C57.6625 29.4707 57.5438 29.5891 57.4252 29.7074C56.9506 29.3523 56.476 28.9973 55.8828 28.7606L57.1879 21.6591Z" fill="#069BA7"/>
<path d="M66.0868 24.6179C66.5614 24.7363 66.9173 25.0913 66.7987 25.5648V26.0382L65.8495 31.7194C65.7309 32.1928 65.375 32.5479 64.9004 32.4295H64.7817C64.3072 32.3111 63.9512 31.9561 64.0699 31.4826L65.1377 25.3281C65.1377 24.8546 65.6122 24.4996 66.0868 24.6179Z" fill="#069BA7"/>
<path d="M72.4927 21.8962C73.0859 21.7779 73.4418 22.1329 73.5605 22.6064L74.9842 31.0098C75.1028 31.4832 74.7469 31.9566 74.2723 31.9566H74.1537C73.6791 32.075 73.2045 31.7199 73.2045 31.2465L71.8994 23.3165L71.7808 22.9614C71.6622 22.488 72.0181 22.0146 72.4927 21.8962Z" fill="#069BA7"/>
<path d="M74.7466 18.9372C75.3398 18.8189 75.6957 19.174 75.8144 19.6474L77.7127 30.5363C77.8313 31.0097 77.4754 31.4831 77.0008 31.4831H76.8822C76.4076 31.6015 75.933 31.2464 75.933 30.773L74.1534 20.2392L74.0347 19.8841C73.9161 19.4107 74.272 18.9372 74.7466 18.9372Z" fill="#069BA7"/>
<path d="M78.9003 21.6591C78.7817 21.1857 78.4257 20.8306 77.9512 20.949H77.8325C77.3579 21.0673 77.002 21.4224 77.1207 21.8958L77.2393 22.2509L78.4257 29.3523C78.4257 29.4707 78.5444 29.5891 78.663 29.7074C79.1376 29.3523 79.6122 28.9973 80.2054 28.7606L78.9003 21.6591Z" fill="#069BA7"/>
<path d="M83.526 28.8795C83.4073 28.7611 83.2887 28.6428 83.0514 28.5244C82.8141 28.5244 82.6954 28.5244 82.4582 28.6428C82.4582 28.6428 80.6785 29.8263 79.6107 30.5365C79.2548 30.7732 78.4243 31.6017 78.187 31.9568C77.5938 32.9036 77.3565 33.8505 77.2378 34.3239V34.4423C77.2378 34.5606 77.2378 34.5606 77.1192 34.679C77.1192 34.9157 76.8819 35.0341 76.7632 35.0341H76.6446C76.4073 35.0341 76.17 34.679 76.17 34.4423C76.17 34.4423 76.17 34.2056 76.2887 33.8505C76.4073 33.2587 76.5259 32.9036 76.7632 32.4302C76.2887 32.4302 75.9327 32.1935 75.5768 31.9568C75.3395 32.4302 74.8649 32.7853 74.2717 32.7853H74.1531C73.5599 32.9036 73.0853 32.7853 72.6107 32.4302C72.3734 32.7853 71.8988 33.1404 71.4243 33.2587H71.3056C71.0683 33.2587 70.831 33.2587 70.5938 33.2587C71.0683 35.1524 72.1361 38.2297 74.1531 37.8747C74.3904 37.8747 74.6276 37.993 74.7463 38.3481C74.7463 38.5848 74.6276 38.8215 74.2717 38.9399C73.9158 38.9399 73.5599 38.9399 73.3226 38.9399C73.3226 39.1766 73.3226 39.2949 73.2039 39.5317C73.0853 40.3602 72.9666 41.307 73.4412 41.7804C73.6785 42.0172 74.0344 42.1355 74.3904 42.1355C75.6954 42.2539 77.1192 42.2539 78.3056 41.8988H78.5429C79.4921 41.6621 81.1531 41.4254 81.3904 40.5969C81.509 40.3602 81.509 40.1234 81.3904 39.8867C81.1531 39.4133 80.9158 38.8215 80.5599 38.3481C80.4412 38.1114 80.2039 37.8747 80.0853 37.6379C79.7293 37.8747 79.4921 37.993 79.1361 38.2297H79.0175C78.7802 38.2297 78.5429 38.1114 78.4243 37.993C78.3056 37.7563 78.4243 37.4012 78.6616 37.2829C78.7802 37.2829 78.8988 37.1645 78.8988 37.1645C79.0175 37.0462 79.3734 36.8094 79.3734 36.6911C79.848 36.2176 80.4412 35.6259 80.6785 34.9157C80.7971 34.7974 80.7971 34.5606 80.6785 34.3239C80.6785 34.2056 80.5599 33.7321 80.4412 33.6138C80.3226 33.2587 80.5599 32.5486 80.6785 32.4302C80.7971 32.1935 81.9836 30.8916 82.2209 30.6548C83.526 29.708 83.7632 29.3529 83.526 28.8795Z" fill="#069BA7"/>
<path d="M70.0009 24.6179C70.5941 24.4996 70.9501 24.8546 71.0687 25.3281L72.1365 31.4826C72.2552 31.9561 71.8992 32.4295 71.4247 32.4295H71.306C70.8314 32.5479 70.3569 32.1928 70.3569 31.7194L69.4077 26.0382L69.2891 25.6831C69.2891 25.2097 69.5263 24.7363 70.0009 24.6179Z" fill="#069BA7"/>
<path d="M2.25583 75.1574C2.01854 74.9207 1.78125 74.5656 1.78125 74.0922C1.78125 73.382 2.37447 72.7902 3.08633 72.7902C3.32362 72.7902 3.56091 72.9086 3.7982 73.0269C5.81515 74.4472 7.95074 75.1574 10.0863 75.1574C12.4592 75.1574 14.1202 73.9738 14.1202 72.0801V71.9617C14.1202 69.9496 11.7474 69.2395 9.25583 68.5294C6.17108 67.7009 2.7304 66.6356 2.7304 62.9666V62.8482C2.7304 59.4158 5.57786 57.2854 9.37447 57.2854C11.5101 57.2854 13.7643 57.8772 15.6626 58.9424C16.0185 59.1791 16.3745 59.5342 16.3745 60.126C16.3745 60.8361 15.7812 61.4279 15.0694 61.4279C14.8321 61.4279 14.5948 61.3096 14.4762 61.3096C12.8151 60.3627 11.0355 59.7709 9.37447 59.7709C7.00159 59.7709 5.57786 60.9545 5.57786 62.6115V62.7298C5.57786 64.6236 8.06939 65.3337 10.6796 66.1622C13.7643 67.1091 16.9677 68.2926 16.9677 71.725V71.8434C16.9677 75.5125 13.8829 77.7612 9.96769 77.7612C7.23888 77.6429 4.39142 76.696 2.25583 75.1574Z" fill="#069BA7"/>
<path d="M18.75 51.4852C18.75 50.5383 19.4619 49.9465 20.411 49.9465C21.3602 49.9465 22.1907 50.5383 22.1907 51.4852V51.9586C22.1907 52.9055 21.4788 53.4973 20.411 53.4973C19.4619 53.4973 18.75 52.9055 18.75 51.9586V51.4852ZM19.1059 58.9417C19.1059 58.1132 19.6992 57.4031 20.5297 57.4031C21.3602 57.4031 22.072 57.9948 22.072 58.9417V75.9852C22.072 76.8137 21.4788 77.5238 20.6483 77.5238C19.8178 77.5238 19.1059 76.932 19.1059 75.9852V58.9417Z" fill="#069BA7"/>
<path d="M25.8641 81.0752C25.3896 80.8385 25.1523 80.3651 25.1523 79.8916C25.1523 79.2998 25.7455 78.5897 26.4574 78.5897C26.6947 78.5897 26.9319 78.708 27.0506 78.8264C29.0675 80.2467 31.4404 80.9568 34.0506 80.9568C38.4404 80.9568 41.1692 78.5897 41.1692 73.9738V71.6066C39.5082 73.8554 37.0167 75.7491 33.4574 75.7491C28.7116 75.7491 24.2031 72.1984 24.2031 66.5172V66.3989C24.2031 60.7177 28.7116 57.167 33.4574 57.167C37.1353 57.167 39.5082 58.9424 41.1692 61.0728V58.824C41.1692 57.9955 41.7625 57.2854 42.593 57.2854C43.4235 57.2854 44.1353 57.9955 44.1353 58.824V73.737C44.1353 76.8143 43.1862 79.0631 41.6438 80.7201C39.8641 82.4955 37.254 83.324 34.1692 83.324C31.0845 83.4424 28.3557 82.6138 25.8641 81.0752ZM41.2879 66.5172C41.2879 62.3747 37.8472 59.7709 34.0506 59.7709C30.254 59.7709 27.2879 62.3747 27.2879 66.3989V66.5172C27.2879 70.423 30.4913 73.1452 34.0506 73.1452C37.7286 73.1452 41.2879 70.423 41.2879 66.5172Z" fill="#069BA7"/>
<path d="M47.2202 58.9422C47.2202 58.1137 47.8134 57.4035 48.6439 57.4035C49.4744 57.4035 50.1863 57.9953 50.1863 58.9422V61.0726C51.4914 58.9422 53.5083 57.2852 56.949 57.2852C61.6948 57.2852 64.4236 60.4808 64.4236 65.0968V75.9857C64.4236 76.8142 63.8304 77.5243 62.9999 77.5243C62.1694 77.5243 61.4575 76.9325 61.4575 75.9857V65.8069C61.4575 62.1378 59.4405 59.889 55.9999 59.889C52.5592 59.889 50.0677 62.3746 50.0677 66.0436V75.9857C50.0677 76.8142 49.4744 77.5243 48.6439 77.5243C47.8134 77.5243 47.1016 76.9325 47.1016 75.9857V58.9422H47.2202Z" fill="#069BA7"/>
<path d="M67.2749 50.7753C67.2749 49.9468 67.8681 49.2367 68.6986 49.2367C69.5291 49.2367 70.241 49.9468 70.241 50.7753V60.9541C71.5461 58.8236 73.563 57.1666 77.0037 57.1666C81.7495 57.1666 84.4783 60.3623 84.4783 64.9782V75.8671C84.4783 76.6956 83.8851 77.4058 83.0546 77.4058C82.224 77.4058 81.5122 76.814 81.5122 75.8671V65.6884C81.5122 62.0193 79.4952 59.7705 76.0546 59.7705C72.6139 59.7705 70.1224 62.256 70.1224 65.9251V75.8671C70.1224 76.6956 69.5291 77.4058 68.6986 77.4058C67.8681 77.4058 67.1562 76.814 67.1562 75.8671V50.7753H67.2749Z" fill="#069BA7"/>
<path d="M86.0156 67.5823C86.0156 62.0195 90.4055 57.2852 96.3377 57.2852C102.27 57.2852 106.541 61.9011 106.541 67.4639C106.541 73.0267 102.151 77.761 96.219 77.761C90.2868 77.6426 86.0156 73.0267 86.0156 67.5823ZM103.456 67.5823C103.456 63.3214 100.253 59.889 96.1004 59.889C91.8292 59.889 88.8631 63.3214 88.8631 67.4639C88.8631 71.7248 91.9478 75.0388 96.1004 75.0388C100.49 75.0388 103.456 71.7248 103.456 67.5823Z" fill="#069BA7"/>
<path d="M112.357 76.2222L106.425 59.6521C106.306 59.4154 106.188 59.1787 106.188 58.8236C106.188 58.1135 106.781 57.4034 107.73 57.4034C108.442 57.4034 109.035 57.8768 109.272 58.5869L114.137 73.3816L119.12 58.5869C119.357 57.8768 119.832 57.4034 120.543 57.4034H120.662C121.493 57.4034 121.967 57.8768 122.204 58.5869L127.187 73.3816L132.171 58.5869C132.408 57.9951 132.764 57.4034 133.594 57.4034C134.425 57.4034 135.018 57.9951 135.018 58.8236C135.018 59.0604 134.899 59.4154 134.781 59.6521L128.73 76.2222C128.374 77.0507 127.781 77.5241 127.187 77.5241H127.069C126.357 77.5241 125.764 77.0507 125.526 76.2222L120.662 61.9009L115.679 76.2222C115.442 77.0507 114.849 77.5241 114.137 77.5241H114.018C113.306 77.5241 112.594 77.0507 112.357 76.2222Z" fill="#069BA7"/>
<path d="M135.492 74.092V74.4471H134.306V77.4061H133.831V74.4471H132.645V74.092H135.492Z" fill="#069BA7"/>
<path d="M135.848 74.092H136.56L137.509 76.9326L138.458 74.092H139.17V77.5244H138.695V75.5123C138.695 75.394 138.695 75.2756 138.695 75.1573C138.695 75.0389 138.695 74.8022 138.695 74.6838L137.746 77.5244H137.271L136.322 74.6838V74.8022C136.322 74.9205 136.322 75.0389 136.322 75.1573C136.322 75.2756 136.322 75.394 136.322 75.5123V77.5244H135.848V74.092Z" fill="#069BA7"/>
</svg>
